# xmcd
#
# Track frame offsets:
#	150
#	19970
#	39135
#	54060
#	74457
#	90415
#	107630
#	121052
#	133230
#	152435
#	171402
#	186852
#	205045
#	219105
#	237332
#
# Disc length: 3369 seconds
#
# Revision: 1
# Processed by: cddbd v1.5.2PL0 Copyright (c) Steve Scherf et al.
# Submitted via: audiograbber 1.83.01
#
DISCID=be0d270f
DTITLE=Nanci Griffith - Flyer
DYEAR=1994
DGENRE=American Folk
TTITLE0=Nanci Griffith - The Flyer
TTITLE1=Nanci Griffith - Nobody's Angel
TTITLE2=Nanci Griffith - Say It Isn't So
TTITLE3=Nanci Griffith - Southbound Train
TTITLE4=Nanci Griffith - These Days In An Open Book
TTITLE5=Nanci Griffith - Time Of Inconvenience
TTITLE6=Nanci Griffith - Don't Forget About Me
TTITLE7=Nanci Griffith - Always Will
TTITLE8=Nanci Griffith and Adam Duritz - Going Back To Georgia
TTITLE9=Nanci Griffith - Talk To Me While I'm Listening
TTITLE10=Nanci Griffith - Fragile
TTITLE11=Nanci Griffith - On Grafton Street
TTITLE12=Nanci Griffith - Anything You Need But Me
TTITLE13=Nanci Griffith - Goodnight To A Mother's Dream
TTITLE14=Nanci Griffith - This Heart
EXTD=Artists displayed correctly.
EXTT0=
EXTT1=
EXTT2=
EXTT3=
EXTT4=
EXTT5=
EXTT6=
EXTT7=
EXTT8=
EXTT9=
EXTT10=
EXTT11=
EXTT12=
EXTT13=
EXTT14=
PLAYORDER=
